{
  "accessors": [
    {
      "bufferView": 2,
      "componentType": 5126,
      "count": 1045,
      "max": [
        8.010631561279297,
        4.3008131980896,
        17.62041473388672
      ],
      "min": [
        -7.234724998474121,
        -3.452425003051758,
        -0.03947100043296814
      ],
      "type": "VEC3"
    },
    {
      "bufferView": 2,
      "byteOffset": 12540,
      "componentType": 5126,
      "count": 1045,
      "max": [
        0.9992901086807251,
        0.999935507774353,
        0.9998322129249573
      ],
      "min": [
        -0.9992366433143616,
        -0.9942758679389954,
        -0.9973146319389343
      ],
      "type": "VEC3"
    },
    {
      "bufferView": 1,
      "componentType": 5126,
      "count": 1045,
      "max": [
        -0.0013330000219866633,
        0.9979000091552734
      ],
      "min": [
        -0.9987069964408875,
        0.001104000024497509
      ],
      "type": "VEC2"
    },
    {
      "bufferView": 0,
      "componentType": 5125,
      "count": 4854,
      "type": "SCALAR"
    },
    {
      "bufferView": 2,
      "byteOffset": 25080,
      "componentType": 5126,
      "count": 416,
      "max": [
        8.818702697753906,
        4.6781110763549805,
        16.29537582397461
      ],
      "min": [
        -7.462440013885498,
        -2.13698410987854,
        4.281064033508301
      ],
      "type": "VEC3"
    },
    {
      "bufferView": 2,
      "byteOffset": 30072,
      "componentType": 5126,
      "count": 416,
      "max": [
        0.9813416600227356,
        0.9997497797012329,
        0.9959716200828552
      ],
      "min": [
        -0.9908499717712402,
        -0.9656102657318115,
        -0.9680617451667786
      ],
      "type": "VEC3"
    },
    {
      "bufferView": 1,
      "byteOffset": 8360,
      "componentType": 5126,
      "count": 416,
      "max": [
        0.9989950060844421,
        0.9989010095596313
      ],
      "min": [
        0.0010029999539256096,
        0.000493000028654933
      ],
      "type": "VEC2"
    },
    {
      "bufferView": 0,
      "byteOffset": 19416,
      "componentType": 5125,
      "count": 1572,
      "type": "SCALAR"
    },
    {
      "bufferView": 2,
      "byteOffset": 35064,
      "componentType": 5126,
      "count": 16,
      "max": [
        2.7367589473724365,
        4.48497200012207,
        11.182205200195313
      ],
      "min": [
        -3.2795400619506836,
        2.599890947341919,
        6.216433048248291
      ],
      "type": "VEC3"
    },
    {
      "bufferView": 2,
      "byteOffset": 35256,
      "componentType": 5126,
      "count": 16,
      "max": [
        0.8862168788909912,
        0.9849650263786316,
        0.6490010023117065
      ],
      "min": [
        -0.6832588315010071,
        0.3462011218070984,
        -0.3146879971027374
      ],
      "type": "VEC3"
    },
    {
      "bufferView": 1,
      "byteOffset": 11688,
      "componentType": 5126,
      "count": 16,
      "max": [
        -0.002343999920412898,
        0.17919200658798218
      ],
      "min": [
        -0.2305690050125122,
        0.0028979999478906393
      ],
      "type": "VEC2"
    },
    {
      "bufferView": 0,
      "byteOffset": 25704,
      "componentType": 5125,
      "count": 24,
      "type": "SCALAR"
    },
    {
      "bufferView": 2,
      "byteOffset": 35448,
      "componentType": 5126,
      "count": 577,
      "max": [
        5.189023971557617,
        0.33661600947380066,
        14.44150161743164
      ],
      "min": [
        0.06162799894809723,
        -4.9911699295043945,
        6.597002029418945
      ],
      "type": "VEC3"
    },
    {
      "bufferView": 2,
      "byteOffset": 42372,
      "componentType": 5126,
      "count": 577,
      "max": [
        0.9936167597770691,
        0.9978903532028198,
        0.9998173713684082
      ],
      "min": [
        -0.9940503835678101,
        -0.9994653463363647,
        -0.9943979978561401
      ],
      "type": "VEC3"
    },
    {
      "bufferView": 1,
      "byteOffset": 11816,
      "componentType": 5126,
      "count": 577,
      "max": [
        0.9978020191192627,
        0.8892359733581543
      ],
      "min": [
        0.001588999992236495,
        0.0031139999628067017
      ],
      "type": "VEC2"
    },
    {
      "bufferView": 0,
      "byteOffset": 25800,
      "componentType": 5125,
      "count": 2922,
      "type": "SCALAR"
    },
    {
      "bufferView": 2,
      "byteOffset": 49296,
      "componentType": 5126,
      "count": 28,
      "max": [
        4.575197219848633,
        -2.2469730377197266,
        10.35682487487793
      ],
      "min": [
        3.9407589435577393,
        -3.537122964859009,
        9.59139347076416
      ],
      "type": "VEC3"
    },
    {
      "bufferView": 2,
      "byteOffset": 49632,
      "componentType": 5126,
      "count": 28,
      "max": [
        0.9958786368370056,
        0.6991012096405029,
        0.6366560459136963
      ],
      "min": [
        0.18606609106063843,
        -0.9226044416427612,
        -0.5093441009521484
      ],
      "type": "VEC3"
    },
    {
      "bufferView": 1,
      "byteOffset": 16432,
      "componentType": 5126,
      "count": 28,
      "max": [
        -0.08917800337076187,
        0.46009400486946106
      ],
      "min": [
        -0.8458260297775269,
        0.058129001408815384
      ],
      "type": "VEC2"
    },
    {
      "bufferView": 0,
      "byteOffset": 37488,
      "componentType": 5125,
      "count": 111,
      "type": "SCALAR"
    },
    {
      "bufferView": 2,
      "byteOffset": 49968,
      "componentType": 5126,
      "count": 376,
      "max": [
        4.210007190704346,
        3.578057050704956,
        5.948754787445068
      ],
      "min": [
        -5.596899032592773,
        -2.303924083709717,
        1.5479389429092407
      ],
      "type": "VEC3"
    },
    {
      "bufferView": 2,
      "byteOffset": 54480,
      "componentType": 5126,
      "count": 376,
      "max": [
        0.9943476319313049,
        0.9677808880805969,
        0.998320996761322
      ],
      "min": [
        -0.999093770980835,
        -0.9982377886772156,
        -0.9970248937606812
      ],
      "type": "VEC3"
    },
    {
      "bufferView": 1,
      "byteOffset": 16656,
      "componentType": 5126,
      "count": 376,
      "max": [
        -0.0015399999683722854,
        -0.002320999978110194
      ],
      "min": [
        -0.9977899789810181,
        -0.9979410171508789
      ],
      "type": "VEC2"
    },
    {
      "bufferView": 0,
      "byteOffset": 37932,
      "componentType": 5125,
      "count": 1344,
      "type": "SCALAR"
    },
    {
      "bufferView": 2,
      "byteOffset": 58992,
      "componentType": 5126,
      "count": 28,
      "max": [
        3.998879909515381,
        -3.5367391109466553,
        10.422609329223633
      ],
      "min": [
        2.7400479316711426,
        -4.264412879943848,
        9.656209945678711
      ],
      "type": "VEC3"
    },
    {
      "bufferView": 2,
      "byteOffset": 59328,
      "componentType": 5126,
      "count": 28,
      "max": [
        0.9631848931312561,
        -0.04006500542163849,
        0.6757190823554993
      ],
      "min": [
        -0.5882927775382996,
        -0.9731797575950623,
        -0.4691378176212311
      ],
      "type": "VEC3"
    },
    {
      "bufferView": 1,
      "byteOffset": 19664,
      "componentType": 5126,
      "count": 28,
      "max": [
        -0.08917800337076187,
        0.4600929915904999
      ],
      "min": [
        -0.8458260297775269,
        0.058129001408815384
      ],
      "type": "VEC2"
    },
    {
      "bufferView": 0,
      "byteOffset": 43308,
      "componentType": 5125,
      "count": 111,
      "type": "SCALAR"
    },
    {
      "bufferView": 2,
      "byteOffset": 59664,
      "componentType": 5126,
      "count": 268,
      "max": [
        9.205305099487305,
        4.6781110763549805,
        17.099971771240234
      ],
      "min": [
        -8.017641067504883,
        -1.6025639772415161,
        3.9151179790496826
      ],
      "type": "VEC3"
    },
    {
      "bufferView": 2,
      "byteOffset": 62880,
      "componentType": 5126,
      "count": 268,
      "max": [
        0.996259331703186,
        0.9449895024299622,
        0.9276679754257202
      ],
      "min": [
        -0.9998451471328735,
        -0.9286883473396301,
        -0.9680617451667786
      ],
      "type": "VEC3"
    },
    {
      "bufferView": 1,
      "byteOffset": 19888,
      "componentType": 5126,
      "count": 268,
      "max": [
        0.9986799955368042,
        0.9987840056419373
      ],
      "min": [
        0.059502001851797104,
        0.000493000028654933
      ],
      "type": "VEC2"
    },
    {
      "bufferView": 0,
      "byteOffset": 43752,
      "componentType": 5125,
      "count": 624,
      "type": "SCALAR"
    },
    {
      "bufferView": 2,
      "byteOffset": 66096,
      "componentType": 5126,
      "count": 264,
      "max": [
        5.486420154571533,
        0.35350701212882996,
        14.743616104125977
      ],
      "min": [
        -0.0385419987142086,
        -4.300663948059082,
        10.10239028930664
      ],
      "type": "VEC3"
    },
    {
      "bufferView": 2,
      "byteOffset": 69264,
      "componentType": 5126,
      "count": 264,
      "max": [
        0.9984399080276489,
        0.9735903739929199,
        0.9918529987335205
      ],
      "min": [
        -0.9873842597007751,
        -0.9994653463363647,
        -0.9730546474456787
      ],
      "type": "VEC3"
    },
    {
      "bufferView": 1,
      "byteOffset": 22032,
      "componentType": 5126,
      "count": 264,
      "max": [
        0.9982690215110779,
        0.9981369972229004
      ],
      "min": [
        0.0015650000423192978,
        0.0021830000914633274
      ],
      "type": "VEC2"
    },
    {
      "bufferView": 0,
      "byteOffset": 46248,
      "componentType": 5125,
      "count": 648,
      "type": "SCALAR"
    },
    {
      "bufferView": 2,
      "byteOffset": 72432,
      "componentType": 5126,
      "count": 94,
      "max": [
        4.798007965087891,
        -0.7395550012588501,
        9.017419815063477
      ],
      "min": [
        1.1172850131988525,
        -4.652186870574951,
        7.279170989990234
      ],
      "type": "VEC3"
    },
    {
      "bufferView": 2,
      "byteOffset": 73560,
      "componentType": 5126,
      "count": 94,
      "max": [
        0.9738209843635559,
        0.9985113739967346,
        0.9783815741539001
      ],
      "min": [
        -0.9958130121231079,
        -0.9944932460784912,
        -0.947969377040863
      ],
      "type": "VEC3"
    },
    {
      "bufferView": 1,
      "byteOffset": 24144,
      "componentType": 5126,
      "count": 94,
      "max": [
        0.9925910234451294,
        0.9883869886398315
      ],
      "min": [
        0.0073979999870061874,
        0.012915000319480896
      ],
      "type": "VEC2"
    },
    {
      "bufferView": 0,
      "byteOffset": 48840,
      "componentType": 5125,
      "count": 402,
      "type": "SCALAR"
    },
    {
      "bufferView": 2,
      "byteOffset": 74688,
      "componentType": 5126,
      "count": 196,
      "max": [
        5.153483867645264,
        1.7174650430679321,
        12.38450813293457
      ],
      "min": [
        -4.590579986572266,
        -5.218803882598877,
        4.12320613861084
      ],
      "type": "VEC3"
    },
    {
      "bufferView": 2,
      "byteOffset": 77040,
      "componentType": 5126,
      "count": 196,
      "max": [
        0.9737308621406555,
        0.9848302602767944,
        0.9971051216125488
      ],
      "min": [
        -0.9715476632118225,
        -0.9888972640037537,
        -0.9979177713394165
      ],
      "type": "VEC3"
    },
    {
      "bufferView": 1,
      "byteOffset": 24896,
      "componentType": 5126,
      "count": 196,
      "max": [
        0.9975370168685913,
        -0.004650999791920185
      ],
      "min": [
        0.002911000046879053,
        -0.9965119957923889
      ],
      "type": "VEC2"
    },
    {
      "bufferView": 0,
      "byteOffset": 50448,
      "componentType": 5125,
      "count": 774,
      "type": "SCALAR"
    },
    {
      "bufferView": 2,
      "byteOffset": 79392,
      "componentType": 5126,
      "count": 177,
      "max": [
        3.8524999618530273,
        3.244939088821411,
        4.990192890167236
      ],
      "min": [
        -5.862127780914307,
        -1.9314470291137695,
        1.4587390422821045
      ],
      "type": "VEC3"
    },
    {
      "bufferView": 2,
      "byteOffset": 81516,
      "componentType": 5126,
      "count": 177,
      "max": [
        0.9954301118850708,
        0.8499370217323303,
        0.998320996761322
      ],
      "min": [
        -0.999093770980835,
        -0.9703386425971985,
        -0.9970248937606812
      ],
      "type": "VEC3"
    },
    {
      "bufferView": 1,
      "byteOffset": 26464,
      "componentType": 5126,
      "count": 177,
      "max": [
        -0.0015399999683722854,
        -0.002320999978110194
      ],
      "min": [
        -0.9986000061035156,
        -0.9978899955749512
      ],
      "type": "VEC2"
    },
    {
      "bufferView": 0,
      "byteOffset": 53544,
      "componentType": 5125,
      "count": 390,
      "type": "SCALAR"
    },
    {
      "bufferView": 2,
      "byteOffset": 83640,
      "componentType": 5126,
      "count": 238,
      "max": [
        8.755146980285645,
        4.3008131980896,
        15.48590087890625
      ],
      "min": [
        -7.444911956787109,
        -1.4460190534591675,
        1.8187220096588135
      ],
      "type": "VEC3"
    },
    {
      "bufferView": 2,
      "byteOffset": 86496,
      "componentType": 5126,
      "count": 238,
      "max": [
        0.9621363282203674,
        0.9778928756713867,
        0.9959716200828552
      ],
      "min": [
        -0.9735671281814575,
        -0.9752947688102722,
        -0.8898229002952576
      ],
      "type": "VEC3"
    },
    {
      "bufferView": 1,
      "byteOffset": 27880,
      "componentType": 5126,
      "count": 238,
      "max": [
        -0.0013330000219866633,
        0.9989699721336365
      ],
      "min": [
        -0.9988229870796204,
        0.0013000000035390258
      ],
      "type": "VEC2"
    },
    {
      "bufferView": 0,
      "byteOffset": 55104,
      "componentType": 5125,
      "count": 522,
      "type": "SCALAR"
    }
  ],
  "asset": {
    "extras": {
      "author": "ThatOneGuyWhoDoesThings (https://sketchfab.com/thatoneguywhodoesthings)",
      "license": "CC-BY-SA-4.0 (http://creativecommons.org/licenses/by-sa/4.0/)",
      "source": "https://sketchfab.com/3d-models/ssbb-donkey-kong-087f31ec47a1405cb2c2b8bedca889f5",
      "title": "[SSBB] Donkey Kong"
    },
    "generator": "Sketchfab-12.67.0",
    "version": "2.0"
  },
  "bufferViews": [
    {
      "buffer": 0,
      "byteLength": 57192,
      "name": "floatBufferViews",
      "target": 34963
    },
    {
      "buffer": 0,
      "byteLength": 29784,
      "byteOffset": 57192,
      "byteStride": 8,
      "name": "floatBufferViews",
      "target": 34962
    },
    {
      "buffer": 0,
      "byteLength": 89352,
      "byteOffset": 86976,
      "byteStride": 12,
      "name": "floatBufferViews",
      "target": 34962
    }
  ],
  "buffers": [
    {
      "byteLength": 176328,
      "uri": "scene.bin"
    }
  ],
  "materials": [
    {
      "doubleSided": true,
      "name": "mat1",
      "pbrMetallicRoughness": {
        "baseColorFactor": [
          0.5,
          0.5,
          0.5,
          1.0
        ],
        "metallicFactor": 0.0,
        "roughnessFactor": 0.6
      }
    },
    {
      "doubleSided": true,
      "name": "mat10",
      "pbrMetallicRoughness": {
        "baseColorFactor": [
          0.5,
          0.5,
          0.5,
          1.0
        ],
        "metallicFactor": 0.0,
        "roughnessFactor": 0.6
      }
    },
    {
      "doubleSided": true,
      "name": "mat11",
      "pbrMetallicRoughness": {
        "baseColorFactor": [
          0.5,
          0.5,
          0.5,
          1.0
        ],
        "metallicFactor": 0.0,
        "roughnessFactor": 0.6
      }
    },
    {
      "doubleSided": true,
      "name": "mat12",
      "pbrMetallicRoughness": {
        "baseColorFactor": [
          0.5,
          0.5,
          0.5,
          1.0
        ],
        "metallicFactor": 0.0,
        "roughnessFactor": 0.6
      }
    },
    {
      "doubleSided": true,
      "name": "mat13",
      "pbrMetallicRoughness": {
        "baseColorFactor": [
          0.5,
          0.5,
          0.5,
          1.0
        ],
        "metallicFactor": 0.0,
        "roughnessFactor": 0.6
      }
    },
    {
      "doubleSided": true,
      "name": "mat2",
      "pbrMetallicRoughness": {
        "baseColorFactor": [
          0.5,
          0.5,
          0.5,
          1.0
        ],
        "metallicFactor": 0.0,
        "roughnessFactor": 0.6
      }
    },
    {
      "doubleSided": true,
      "name": "mat3",
      "pbrMetallicRoughness": {
        "baseColorFactor": [
          0.5,
          0.5,
          0.5,
          1.0
        ],
        "metallicFactor": 0.0,
        "roughnessFactor": 0.6
      }
    },
    {
      "doubleSided": true,
      "name": "mat4",
      "pbrMetallicRoughness": {
        "baseColorFactor": [
          0.5,
          0.5,
          0.5,
          1.0
        ],
        "metallicFactor": 0.0,
        "roughnessFactor": 0.6
      }
    },
    {
      "doubleSided": true,
      "name": "mat5",
      "pbrMetallicRoughness": {
        "baseColorFactor": [
          0.5,
          0.5,
          0.5,
          1.0
        ],
        "metallicFactor": 0.0,
        "roughnessFactor": 0.6
      }
    },
    {
      "doubleSided": true,
      "name": "mat6",
      "pbrMetallicRoughness": {
        "baseColorFactor": [
          0.5,
          0.5,
          0.5,
          1.0
        ],
        "metallicFactor": 0.0,
        "roughnessFactor": 0.6
      }
    },
    {
      "doubleSided": true,
      "name": "mat7",
      "pbrMetallicRoughness": {
        "baseColorFactor": [
          0.5,
          0.5,
          0.5,
          1.0
        ],
        "metallicFactor": 0.0,
        "roughnessFactor": 0.6
      }
    },
    {
      "doubleSided": true,
      "name": "mat8",
      "pbrMetallicRoughness": {
        "baseColorFactor": [
          0.5,
          0.5,
          0.5,
          1.0
        ],
        "metallicFactor": 0.0,
        "roughnessFactor": 0.6
      }
    },
    {
      "doubleSided": true,
      "name": "mat9",
      "pbrMetallicRoughness": {
        "baseColorFactor": [
          0.5,
          0.5,
          0.5,
          1.0
        ],
        "metallicFactor": 0.0,
        "roughnessFactor": 0.6
      }
    }
  ],
  "meshes": [
    {
      "name": "Object_0",
      "primitives": [
        {
          "attributes": {
            "NORMAL": 1,
            "POSITION": 0,
            "TEXCOORD_0": 2
          },
          "indices": 3,
          "material": 0,
          "mode": 4
        }
      ]
    },
    {
      "name": "Object_1",
      "primitives": [
        {
          "attributes": {
            "NORMAL": 5,
            "POSITION": 4,
            "TEXCOORD_0": 6
          },
          "indices": 7,
          "material": 1,
          "mode": 4
        }
      ]
    },
    {
      "name": "Object_2",
      "primitives": [
        {
          "attributes": {
            "NORMAL": 9,
            "POSITION": 8,
            "TEXCOORD_0": 10
          },
          "indices": 11,
          "material": 4,
          "mode": 4
        }
      ]
    },
    {
      "name": "Object_3",
      "primitives": [
        {
          "attributes": {
            "NORMAL": 13,
            "POSITION": 12,
            "TEXCOORD_0": 14
          },
          "indices": 15,
          "material": 6,
          "mode": 4
        }
      ]
    },
    {
      "name": "Object_4",
      "primitives": [
        {
          "attributes": {
            "NORMAL": 17,
            "POSITION": 16,
            "TEXCOORD_0": 18
          },
          "indices": 19,
          "material": 7,
          "mode": 4
        }
      ]
    },
    {
      "name": "Object_5",
      "primitives": [
        {
          "attributes": {
            "NORMAL": 21,
            "POSITION": 20,
            "TEXCOORD_0": 22
          },
          "indices": 23,
          "material": 8,
          "mode": 4
        }
      ]
    },
    {
      "name": "Object_6",
      "primitives": [
        {
          "attributes": {
            "NORMAL": 25,
            "POSITION": 24,
            "TEXCOORD_0": 26
          },
          "indices": 27,
          "material": 10,
          "mode": 4
        }
      ]
    },
    {
      "name": "Object_7",
      "primitives": [
        {
          "attributes": {
            "NORMAL": 29,
            "POSITION": 28,
            "TEXCOORD_0": 30
          },
          "indices": 31,
          "material": 2,
          "mode": 4
        }
      ]
    },
    {
      "name": "Object_8",
      "primitives": [
        {
          "attributes": {
            "NORMAL": 33,
            "POSITION": 32,
            "TEXCOORD_0": 34
          },
          "indices": 35,
          "material": 3,
          "mode": 4
        }
      ]
    },
    {
      "name": "Object_9",
      "primitives": [
        {
          "attributes": {
            "NORMAL": 37,
            "POSITION": 36,
            "TEXCOORD_0": 38
          },
          "indices": 39,
          "material": 5,
          "mode": 4
        }
      ]
    },
    {
      "name": "Object_10",
      "primitives": [
        {
          "attributes": {
            "NORMAL": 41,
            "POSITION": 40,
            "TEXCOORD_0": 42
          },
          "indices": 43,
          "material": 9,
          "mode": 4
        }
      ]
    },
    {
      "name": "Object_11",
      "primitives": [
        {
          "attributes": {
            "NORMAL": 45,
            "POSITION": 44,
            "TEXCOORD_0": 46
          },
          "indices": 47,
          "material": 11,
          "mode": 4
        }
      ]
    },
    {
      "name": "Object_12",
      "primitives": [
        {
          "attributes": {
            "NORMAL": 49,
            "POSITION": 48,
            "TEXCOORD_0": 50
          },
          "indices": 51,
          "material": 12,
          "mode": 4
        }
      ]
    }
  ],
  "nodes": [
    {
      "children": [
        1
      ],
      "matrix": [
        1.0,
        0.0,
        0.0,
        0.0,
        0.0,
        2.220446049250313e-16,
        -1.0,
        0.0,
        0.0,
        1.0,
        2.220446049250313e-16,
        0.0,
        0.0,
        0.0,
        0.0,
        1.0
      ],
      "name": "Sketchfab_model"
    },
    {
      "children": [
        2,
        3,
        4,
        5,
        6,
        7,
        8,
        9,
        10,
        11,
        12,
        13,
        14
      ],
      "name": "DolDonkeykongR1.obj.cleaner"
    },
    {
      "mesh": 0,
      "name": "Object_2"
    },
    {
      "mesh": 1,
      "name": "Object_3"
    },
    {
      "mesh": 2,
      "name": "Object_4"
    },
    {
      "mesh": 3,
      "name": "Object_5"
    },
    {
      "mesh": 4,
      "name": "Object_6"
    },
    {
      "mesh": 5,
      "name": "Object_7"
    },
    {
      "mesh": 6,
      "name": "Object_8"
    },
    {
      "mesh": 7,
      "name": "Object_9"
    },
    {
      "mesh": 8,
      "name": "Object_10"
    },
    {
      "mesh": 9,
      "name": "Object_11"
    },
    {
      "mesh": 10,
      "name": "Object_12"
    },
    {
      "mesh": 11,
      "name": "Object_13"
    },
    {
      "mesh": 12,
      "name": "Object_14"
    }
  ],
  "scene": 0,
  "scenes": [
    {
      "name": "Sketchfab_Scene",
      "nodes": [
        0
      ]
    }
  ]
}
