<?xml version="1.0" standalone="no"?>
<svg xmlns="http://www.w3.org/2000/svg"
 width="1280.000000pt" height="1280.000000pt" viewBox="0 0 1280.000000 1280.000000"
 preserveAspectRatio="xMidYMid meet">
<g transform="translate(0.000000,1280.000000) scale(0.100000,-0.100000)"
fill="#FFF" stroke="none">
<path d="M4100 11177 c-36 -12 -87 -35 -115 -51 -34 -19 -400 -379 -1171
-1150 -1201 -1202 -1156 -1153 -1198 -1295 -15 -50 -16 -362 -16 -3345 0
-3591 -4 -3333 57 -3455 36 -73 151 -188 224 -224 122 -61 -136 -57 3455 -57
2983 0 3295 1 3345 16 142 42 93 -4 1300 1203 1207 1207 1161 1158 1203 1300
15 50 16 362 16 3346 0 2999 -1 3296 -16 3346 -55 185 -188 318 -373 373 -50
15 -347 16 -3350 16 l-3296 -1 -65 -22z m4735 -1577 l-530 -530 -2435 0 -2435
0 530 530 530 530 2435 0 2435 0 -530 -530z m-835 -4265 l0 -2665 -2665 0
-2665 0 0 2665 0 2665 2665 0 2665 0 0 -2665z"/>
</g>
</svg>
