<?xml version="1.0"?><svg xmlns="http://www.w3.org/2000/svg"  viewBox="0 0 24 24" width="48px" height="48px">    <path fill="#FFF" d="M20.922,7.615c-0.051-0.122-0.124-0.231-0.216-0.323l-3.999-3.999C16.52,3.105,16.265,3,16,3H4 C3.87,3,3.74,3.026,3.618,3.077c-0.245,0.101-0.44,0.296-0.541,0.541C3.027,3.74,3,3.87,3,4v12c0,0.266,0.105,0.52,0.293,0.707 l3.999,3.999c0.092,0.092,0.201,0.165,0.323,0.216C7.736,20.973,7.867,21,8,21h12c0.552,0,1-0.447,1-1V8 C21,7.866,20.973,7.736,20.922,7.615z M17.586,7H8.414l-2-2h9.172L17.586,7z M9,19V9h10v10H9z"/></svg>